<!-- Generated by IcoMoon.io -->
<svg version="1.1" xmlns="http://www.w3.org/2000/svg" width="1892" height="1024" viewBox="0 0 1892 1024">
<title></title>
<g id="icomoon-ignore">
</g>
<path fill="#afb1b8" d="M653.99 676.009c2.712 3.074 4.157 6.923 4.082 10.874 0.138 2.577-0.358 5.15-1.454 7.528-1.094 2.377-2.759 4.499-4.871 6.209-5.269 3.643-11.796 5.424-18.384 5.015h-32.319v-68.913h31.657c6.25-0.381 12.448 1.238 17.539 4.578 2.044 1.567 3.663 3.547 4.728 5.784 1.066 2.238 1.549 4.671 1.411 7.11 0.186 3.801-1.117 7.539-3.676 10.537-2.456 2.738-5.851 4.636-9.633 5.386 4.287 0.717 8.157 2.805 10.92 5.891v0zM616.082 665.607h13.53c3.075 0.208 6.13-0.604 8.604-2.29 1.016-0.843 1.806-1.889 2.311-3.056 0.503-1.168 0.707-2.425 0.594-3.676 0.096-1.247-0.112-2.497-0.608-3.661s-1.268-2.214-2.261-3.072c-2.548-1.733-5.697-2.558-8.861-2.323h-13.31v18.078zM639.54 692.035c1.085-0.864 1.939-1.944 2.494-3.159 0.554-1.214 0.796-2.53 0.705-3.844 0.082-1.329-0.169-2.658-0.737-3.883s-1.435-2.316-2.536-3.186c-2.648-1.798-5.904-2.68-9.193-2.492h-14.192v18.954h14.376c3.236 0.171 6.439-0.672 9.082-2.39v0z"></path>
<path fill="#afb1b8" d="M718.702 705.635l-17.612-26.932h-6.618v26.932h-15.149v-68.913h28.679c7.229-0.462 14.376 1.635 19.966 5.858 4.008 3.74 6.427 8.668 6.817 13.896s-1.27 10.413-4.685 14.619c-3.538 3.711-8.372 6.185-13.678 7.002l18.751 27.538h-16.472zM694.472 669.31h12.39c8.604 0 12.906-3.478 12.906-10.436 0.088-1.42-0.148-2.843-0.692-4.176-0.544-1.332-1.386-2.548-2.47-3.567-2.719-2.070-6.221-3.074-9.744-2.794h-12.538l0.148 20.973z"></path>
<path fill="#afb1b8" d="M801.504 691.763h-30.187l-5.331 13.871h-15.883l27.723-68.139h17.171l27.613 68.139h-15.884l-5.221-13.871zM797.459 681.327l-11.030-29.087-11.030 29.087h22.061z"></path>
<path fill="#afb1b8" d="M905.155 705.635h-15.038l-33.717-46.862v46.862h-15v-68.914h15l33.717 47.133v-47.133h15.038v68.914z"></path>
<path fill="#afb1b8" d="M990.972 689.14c-3.11 5.202-7.847 9.435-13.605 12.153-6.546 3.027-13.811 4.519-21.141 4.343h-26.768v-68.914h26.768c7.318-0.175 14.573 1.281 21.141 4.242 5.757 2.657 10.499 6.846 13.605 12.019 3.095 5.605 4.708 11.797 4.708 18.078s-1.613 12.474-4.708 18.079v0zM973.764 687.49c4.292-4.578 6.652-10.413 6.652-16.446s-2.36-11.867-6.652-16.445c-5.188-4.147-11.953-6.252-18.826-5.858h-10.441v44.607h10.441c6.873 0.393 13.638-1.712 18.826-5.858z"></path>
<path fill="#afb1b8" d="M810.917 253.403c0 0 194.1 67.096 189.982 164.188v164.221c0 0-193.952-67.129-189.909-164.221l-0.073-164.188z"></path>
<path fill="#afb1b8" d="M1173.816 543.367c36.664-23.099 79.059-37.406 123.325-41.611v-51.408c-51 17.998-94.264 50.631-123.325 93.019v0z"></path>
<path fill="#afb1b8" d="M1151.8 558.854c29.997-55.317 82.009-98.002 145.341-119.277v-148.129c0 0-276.424 95.577-270.578 233.842v233.809c0 0 12.317-4.276 31.694-12.289 0-7.473 0-15.014 0.883-22.589 5.721-64.189 39.049-123.67 92.66-165.366v0z"></path>
<path fill="#afb1b8" d="M1125.51 645.711c1.447-16.215 4.686-32.255 9.672-47.873-33.385 36.008-53.6 80.689-57.805 127.762-0.405 4.444-0.626 8.888-0.736 13.467 15.699-6.902 33.973-15.52 53.165-25.653-4.897-22.271-6.344-45.062-4.296-67.702v0z"></path>
<path fill="#afb1b8" d="M1136.495 646.552c-1.837 20.483-0.69 41.1 3.428 61.305 75.52-41.375 160.378-105.306 157.106-182.569v-6.733c-53.96 5.527-104.437 27.125-143.694 61.473-9.183 21.286-14.859 43.706-16.84 66.523v0z"></path>
</svg>
