<!-- Generated by IcoMoon.io -->
<svg version="1.1" xmlns="http://www.w3.org/2000/svg" width="1892" height="1024" viewBox="0 0 1892 1024">
<title></title>
<g id="icomoon-ignore">
</g>
<path fill="#afb1b8" d="M761.392 724.607c0.177 0.004 0.352 0.039 0.513 0.102s0.306 0.155 0.427 0.267l2.428 2.321c-1.884 1.878-4.213 3.38-6.827 4.404-3.062 1.116-6.362 1.655-9.681 1.582-3.119 0.056-6.217-0.446-9.104-1.477-2.603-0.946-4.942-2.366-6.859-4.166-1.956-1.867-3.463-4.055-4.431-6.435-1.061-2.653-1.584-5.446-1.547-8.254-0.043-2.826 0.523-5.634 1.668-8.28 1.061-2.395 2.659-4.582 4.704-6.435 2.072-1.815 4.551-3.243 7.284-4.193 2.989-1.007 6.172-1.508 9.377-1.477 2.977-0.062 5.939 0.394 8.71 1.345 2.403 0.906 4.61 2.164 6.525 3.719l-2.034 2.479c-0.14 0.175-0.315 0.326-0.516 0.449-0.239 0.142-0.53 0.208-0.819 0.185-0.315-0.019-0.619-0.11-0.879-0.264l-1.093-0.66-1.517-0.844c-0.656-0.313-1.335-0.587-2.034-0.817-0.9-0.28-1.823-0.501-2.761-0.659-1.191-0.191-2.401-0.279-3.612-0.264-2.307-0.026-4.598 0.351-6.736 1.107-1.995 0.7-3.794 1.761-5.28 3.111-1.514 1.437-2.68 3.123-3.429 4.959-0.855 2.099-1.277 4.313-1.244 6.539-0.037 2.262 0.384 4.511 1.244 6.646 0.74 1.819 1.884 3.495 3.368 4.931 1.39 1.339 3.113 2.385 5.038 3.060 1.981 0.713 4.107 1.072 6.252 1.054 1.238 0.017 2.477-0.053 3.702-0.21 2.001-0.213 3.92-0.817 5.614-1.768 0.849-0.486 1.651-1.033 2.397-1.635 0.312-0.258 0.722-0.408 1.153-0.422v0z"></path>
<path fill="#afb1b8" d="M831.492 712.947c0.038 2.798-0.518 5.577-1.638 8.201-0.988 2.379-2.547 4.549-4.571 6.367s-4.469 3.243-7.172 4.181c-5.941 1.969-12.509 1.969-18.451 0-2.687-0.952-5.116-2.38-7.131-4.193-2.024-1.851-3.593-4.039-4.612-6.433-2.186-5.311-2.186-11.117 0-16.427 1.035-2.396 2.602-4.591 4.612-6.461 2.034-1.755 4.461-3.129 7.131-4.034 5.934-2.005 12.517-2.005 18.451 0 2.696 0.952 5.134 2.379 7.161 4.193 1.998 1.832 3.556 3.992 4.582 6.354 1.124 2.64 1.68 5.438 1.638 8.253zM825.12 712.947c0.048-2.238-0.343-4.467-1.153-6.593-0.68-1.82-1.785-3.498-3.247-4.931-1.424-1.355-3.176-2.418-5.129-3.111-4.317-1.441-9.096-1.441-13.413 0-1.953 0.693-3.705 1.756-5.129 3.111-1.481 1.424-2.599 3.104-3.277 4.931-1.544 4.293-1.544 8.892 0 13.185 0.685 1.824 1.801 3.504 3.277 4.931 1.425 1.347 3.177 2.401 5.129 3.085 4.325 1.405 9.088 1.405 13.413 0 1.952-0.685 3.704-1.739 5.129-3.085 1.455-1.436 2.559-3.113 3.247-4.931 0.815-2.125 1.204-4.354 1.153-6.593v0z"></path>
<path fill="#afb1b8" d="M879.319 719.858l0.638 1.477c0.243-0.528 0.455-1.003 0.698-1.477 0.232-0.495 0.494-0.979 0.789-1.45l15.507-24.494c0.304-0.422 0.577-0.685 0.88-0.765 0.412-0.109 0.844-0.154 1.274-0.131h4.582v39.838h-5.433v-29.292c0-0.37 0-0.791 0-1.239-0.029-0.456-0.029-0.915 0-1.371l-15.598 24.836c-0.198 0.372-0.514 0.687-0.913 0.906-0.398 0.22-0.861 0.335-1.332 0.333h-0.88c-0.473 0.006-0.937-0.108-1.336-0.328s-0.715-0.536-0.91-0.91l-16.053-24.995c0 0.474 0 0.949 0 1.424s0 0.896 0 1.266v29.292h-5.249v-39.759h4.582c0.43-0.022 0.861 0.022 1.274 0.131 0.376 0.163 0.676 0.433 0.849 0.765l15.841 24.52c0.312 0.453 0.575 0.929 0.789 1.424v0z"></path>
<path fill="#afb1b8" d="M937.677 717.879v14.923h-6.069v-39.785h13.535c2.554-0.042 5.102 0.25 7.556 0.869 1.965 0.484 3.785 1.329 5.341 2.479 1.348 1.077 2.386 2.413 3.034 3.902 0.717 1.623 1.066 3.35 1.032 5.088 0.027 1.745-0.355 3.476-1.123 5.089-0.729 1.526-1.85 2.888-3.277 3.981-1.557 1.197-3.388 2.096-5.372 2.636-2.363 0.657-4.834 0.968-7.314 0.923l-7.344-0.105zM937.677 713.607h7.344c1.595 0.019 3.183-0.186 4.704-0.605 1.254-0.367 2.41-0.951 3.399-1.714 0.912-0.73 1.617-1.632 2.064-2.637 0.496-1.063 0.744-2.2 0.728-3.348 0.070-1.106-0.137-2.212-0.609-3.241s-1.197-1.957-2.123-2.717c-2.318-1.573-5.23-2.335-8.163-2.136h-7.344v16.398z"></path>
<path fill="#afb1b8" d="M1019.248 732.855h-4.795c-0.481 0.016-0.954-0.115-1.336-0.37-0.344-0.248-0.614-0.564-0.789-0.923l-4.127-9.624h-20.726l-4.28 9.624c-0.157 0.352-0.419 0.661-0.758 0.897-0.386 0.269-0.87 0.41-1.366 0.395h-4.795l18.208-39.843h6.312l18.451 39.843zM989.205 718.062h17.115l-7.223-16.217c-0.552-1.22-1.008-2.471-1.366-3.744l-0.698 2.084c-0.213 0.632-0.455 1.213-0.668 1.687l-7.161 16.19z"></path>
<path fill="#afb1b8" d="M1045.468 693.198c0.363 0.173 0.675 0.416 0.91 0.711l26.553 30.033c0-0.474 0-0.949 0-1.398 0-0.447 0-0.896 0-1.318v-28.213h5.433v39.841h-3.035c-0.431 0.011-0.858-0.070-1.244-0.237-0.374-0.19-0.705-0.441-0.971-0.738l-26.523-30.007c0.029 0.456 0.029 0.914 0 1.371 0 0.447 0 0.844 0 1.212v28.398h-5.433v-39.841h3.217c0.376-0.009 0.749 0.053 1.093 0.185v0z"></path>
<path fill="#afb1b8" d="M1123.094 717.009v15.821h-6.066v-15.821l-16.784-23.994h5.432c0.469-0.024 0.932 0.097 1.306 0.342 0.331 0.256 0.608 0.56 0.819 0.897l10.496 15.478c0.434 0.659 0.79 1.266 1.102 1.845 0.301 0.58 0.545 1.134 0.757 1.687l0.79-1.714c0.289-0.627 0.634-1.234 1.024-1.819l10.351-15.584c0.223-0.311 0.479-0.594 0.79-0.844 0.356-0.273 0.824-0.415 1.302-0.395h5.498l-16.818 24.1z"></path>
<path fill="#afb1b8" d="M876.315 626.155c2.64 0.291 5.311 0.528 8.012 0.739 40.948-15.915 75.587-41.964 99.59-74.889s36.303-71.268 35.364-110.234l-45.126-39.208c9.176 41.486 4.884 84.373-12.395 123.861s-46.864 74.020-85.444 99.731v0z"></path>
<path fill="#afb1b8" d="M860.201 624.332l1.214 0.21c41.225-25.62 72.656-61.397 90.229-102.704s20.476-86.245 8.337-129.002l-64.274-55.844c25.997 45.903 36.461 97.274 30.176 148.141s-29.063 99.137-65.682 139.198v0z"></path>
<path fill="#afb1b8" d="M1078.183 487.808c-10.92 42.814-37.441 81.428-75.625 110.107-11.152 8.421-23.18 15.924-35.93 22.411 31.092-7.94 59.67-21.978 83.532-41.031 23.86-19.054 42.367-42.614 54.091-68.864l-26.067-22.623z"></path>
<path fill="#afb1b8" d="M1067.954 481.504l-37.113-32.247c-0.71 36.765-12.74 72.694-34.839 104.053s-53.462 57.002-90.828 74.266h0.183c8.327-0.002 16.647-0.434 24.914-1.292 34.921-12.384 65.77-32.086 89.794-57.348 24.025-25.263 40.477-55.299 47.89-87.431v0z"></path>
<path fill="#afb1b8" d="M865.573 313.443l-44.277-38.521c-39.581 13.289-73.622 36.65-97.668 67.027s-36.978 66.354-37.101 103.223v0c0.148 40.739 15.93 80.27 44.847 112.338s69.318 54.842 114.808 64.715c40.608-42.986 64.384-96.104 67.871-151.632 3.487-55.53-13.496-110.58-48.48-157.149v0z"></path>
<path fill="#afb1b8" d="M1170.254 475.573c-0.156-48.334-22.328-94.648-61.666-128.825-39.336-34.177-92.642-53.439-148.272-53.579v0c-25.707-0.023-51.194 4.098-75.169 12.154l271.083 235.532c9.283-20.819 14.047-42.956 14.024-65.283v0z"></path>
</svg>
