<!-- Generated by IcoMoon.io -->
<svg version="1.1" xmlns="http://www.w3.org/2000/svg" width="1892" height="1024" viewBox="0 0 1892 1024">
<title></title>
<g id="icomoon-ignore">
</g>
<path fill="#2196f3" d="M624.932 412.97h-0.032c-26.691 0-48.328 19.229-48.328 42.949v0.028c0 23.72 21.638 42.949 48.328 42.949h0.032c26.691 0 48.328-19.229 48.328-42.949v-0.028c0-23.72-21.638-42.949-48.328-42.949z"></path>
<path fill="#2196f3" d="M981.649 399.241c-0.076-32.946-14.834-64.524-41.045-87.822s-61.741-36.422-98.813-36.497v0c-37.083 0.059-72.628 13.175-98.853 36.477-26.226 23.3-40.992 54.886-41.068 87.843v0 181.68c0 0 279.747-27.689 279.778-181.652v-0.028z"></path>
<path fill="#2196f3" d="M478.609 640.551c0.067 22.924 10.341 44.892 28.579 61.105s42.953 25.351 68.748 25.419v0c25.789-0.068 50.501-9.203 68.736-25.409s28.515-38.167 28.591-61.087v0-126.416c0 0-194.653 19.281-194.653 126.388zM575.935 663.2c-5.041 0-9.968-1.328-14.16-3.817s-7.457-6.026-9.386-10.165c-1.929-4.138-2.434-8.693-1.45-13.086s3.41-8.43 6.974-11.598c3.565-3.168 8.106-5.325 13.050-6.199s10.067-0.425 14.726 1.289c4.657 1.714 8.637 4.618 11.438 8.342s4.295 8.104 4.295 12.584c0.012 2.981-0.638 5.936-1.912 8.694-1.276 2.757-3.151 5.265-5.518 7.376-2.369 2.113-5.182 3.789-8.281 4.932s-6.42 1.733-9.775 1.733v-0.086z"></path>
<path fill="#2196f3" d="M772.649 650.726h-18.783v19.403h-9.783v-47.478h30.914v7.924h-21.131v12.261h18.783v7.89zM819.671 647.466c0 4.674-0.826 8.772-2.478 12.294-1.653 3.522-4.023 6.239-7.109 8.152-3.065 1.913-6.587 2.869-10.565 2.869-3.935 0-7.446-0.946-10.533-2.837s-5.478-4.587-7.174-8.086c-1.696-3.522-2.554-7.565-2.577-12.131v-2.347c0-4.674 0.837-8.783 2.511-12.326 1.696-3.566 4.076-6.294 7.141-8.185 3.088-1.913 6.609-2.869 10.565-2.869s7.467 0.956 10.533 2.869c3.088 1.891 5.467 4.619 7.141 8.185 1.696 3.543 2.543 7.641 2.543 12.292v2.12zM809.758 645.314c0-4.978-0.892-8.761-2.674-11.347-1.783-2.587-4.326-3.88-7.631-3.88-3.282 0-5.815 1.282-7.598 3.848-1.782 2.543-2.685 6.282-2.707 11.217v2.315c0 4.847 0.892 8.608 2.675 11.282s4.348 4.011 7.696 4.011c3.282 0 5.805-1.282 7.565-3.848 1.761-2.587 2.652-6.348 2.674-11.283v-2.315zM851.399 657.673c0-1.848-0.652-3.261-1.957-4.24-1.303-1-3.652-2.044-7.043-3.13-3.391-1.11-6.076-2.196-8.054-3.261-5.392-2.913-8.087-6.837-8.087-11.772 0-2.566 0.718-4.848 2.153-6.849 1.456-2.021 3.533-3.597 6.229-4.728 2.717-1.13 5.76-1.695 9.13-1.695 3.391 0 6.412 0.62 9.065 1.859 2.652 1.218 4.707 2.945 6.163 5.185 1.478 2.239 2.218 4.783 2.218 7.63h-9.784c0-2.174-0.685-3.858-2.054-5.054-1.37-1.217-3.293-1.825-5.772-1.825-2.391 0-4.25 0.511-5.576 1.533-1.326 1-1.989 2.326-1.989 3.978 0 1.544 0.772 2.837 2.315 3.88 1.566 1.044 3.859 2.022 6.881 2.935 5.565 1.674 9.62 3.75 12.163 6.229 2.543 2.478 3.816 5.565 3.816 9.261 0 4.108-1.555 7.337-4.664 9.685-3.109 2.326-7.294 3.489-12.554 3.489-3.652 0-6.979-0.663-9.978-1.989-3-1.348-5.294-3.184-6.881-5.511-1.565-2.326-2.347-5.022-2.347-8.087h9.815c0 5.239 3.131 7.859 9.392 7.859 2.326 0 4.142-0.467 5.445-1.402 1.304-0.956 1.957-2.283 1.957-3.978zM903.605 630.575h-14.543v39.554h-9.783v-39.554h-14.348v-7.924h38.674v7.924zM937.78 649.553h-18.783v12.718h22.043v7.858h-31.825v-47.478h31.761v7.924h-21.978v11.315h18.783v7.663zM964.356 652.749h-7.794v17.38h-9.783v-47.478h17.641c5.609 0 9.935 1.25 12.978 3.75s4.566 6.033 4.566 10.597c0 3.24-0.707 5.946-2.119 8.12-1.391 2.153-3.512 3.87-6.359 5.152l10.271 19.403v0.456h-10.499l-8.902-17.38zM956.563 644.825h7.89c2.456 0 4.359-0.62 5.707-1.859 1.348-1.261 2.022-2.99 2.022-5.185 0-2.239-0.641-4-1.924-5.284-1.261-1.282-3.207-1.923-5.837-1.923h-7.858v14.25zM1015.845 653.401v16.728h-9.783v-47.478h18.522c3.565 0 6.696 0.652 9.391 1.957 2.718 1.304 4.805 3.162 6.261 5.575 1.457 2.392 2.185 5.12 2.185 8.185 0 4.653-1.597 8.326-4.793 11.021-3.174 2.675-7.576 4.011-13.207 4.011h-8.576zM1015.845 645.477h8.74c2.587 0 4.555-0.609 5.902-1.827 1.369-1.218 2.054-2.956 2.054-5.217 0-2.326-0.685-4.207-2.054-5.642s-3.261-2.174-5.674-2.217h-8.968v14.903zM1077.737 649.553h-18.783v12.718h22.043v7.858h-31.825v-47.478h31.761v7.924h-21.978v11.315h18.783v7.663zM1123.128 630.575h-14.543v39.554h-9.783v-39.554h-14.348v-7.924h38.674v7.924zM1157.298 649.553h-18.777v12.718h22.038v7.858h-31.822v-47.478h31.755v7.924h-21.971v11.315h18.777v7.663zM1183.878 652.749h-7.791v17.38h-9.784v-47.478h17.642c5.61 0 9.928 1.25 12.978 3.75 3.039 2.5 4.563 6.033 4.563 10.597 0 3.24-0.701 5.946-2.115 8.12-1.391 2.153-3.517 3.87-6.367 5.152l10.273 19.403v0.456h-10.496l-8.904-17.38zM1176.086 644.825h7.891c2.46 0 4.352-0.62 5.699-1.859 1.358-1.261 2.026-2.99 2.026-5.185 0-2.239-0.634-4-1.926-5.284-1.258-1.282-3.206-1.923-5.832-1.923h-7.858v14.25zM1233.575 657.673c0-1.848-0.657-3.261-1.959-4.24-1.302-1-3.651-2.044-7.046-3.13-3.384-1.11-6.077-2.196-8.047-3.261-5.398-2.913-8.092-6.837-8.092-11.772 0-2.566 0.723-4.848 2.148-6.849 1.458-2.021 3.539-3.597 6.233-4.728 2.716-1.13 5.766-1.695 9.127-1.695 3.395 0 6.411 0.62 9.071 1.859 2.649 1.218 4.708 2.945 6.155 5.185 1.48 2.239 2.226 4.783 2.226 7.63h-9.784c0-2.174-0.69-3.858-2.059-5.054-1.369-1.217-3.295-1.825-5.766-1.825-2.393 0-4.252 0.511-5.576 1.533-1.325 1-1.992 2.326-1.992 3.978 0 1.544 0.768 2.837 2.315 3.88 1.569 1.044 3.862 2.022 6.879 2.935 5.565 1.674 9.617 3.75 12.166 6.229 2.538 2.478 3.818 5.565 3.818 9.261 0 4.108-1.558 7.337-4.664 9.685-3.117 2.326-7.302 3.489-12.555 3.489-3.651 0-6.979-0.663-9.984-1.989-2.994-1.348-5.287-3.184-6.879-5.511-1.558-2.326-2.349-5.022-2.349-8.087h9.817c0 5.239 3.128 7.859 9.394 7.859 2.326 0 4.141-0.467 5.443-1.402 1.302-0.956 1.959-2.283 1.959-3.978z"></path>
</svg>
