<!-- Generated by IcoMoon.io -->
<svg version="1.1" xmlns="http://www.w3.org/2000/svg" width="1892" height="1024" viewBox="0 0 1892 1024">
<title></title>
<g id="icomoon-ignore">
</g>
<path fill="#afb1b8" d="M913.959 244.141h-1.52c-2.337-0.141-4.674-0.198-7.011-0.255v0h-5.068c-4.421 0-8.927 0.114-13.403 0.339-0.337-0.024-0.677-0.024-1.014 0-40.563 2.298-80.304 12.437-117.048 29.861l-4.815 2.321v246.441l11.263-3.821c9.883-3.397 20.413-6.453 31.31-9.284 29.457-7.562 59.703-11.581 90.102-11.972v32.378c-4.026 0.029-7.939 0.142-11.854 0.341h-0.929c-23.395 1.283-46.612 4.847-69.321 10.642-28.763 7.201-56.509 18.013-82.584 32.181v-316.068c27.081-15.795 56.25-27.659 86.638-35.238 26.682-6.889 54.109-10.426 81.656-10.529h4.758c5.688 0.141 11.234 0.396 16.443 0.792 13.725 0.964 27.339 3.132 40.687 6.481v31.87c-12.964-3.020-26.145-5.006-39.42-5.944-0.269-0.022-0.539-0.046-0.809-0.068-2.746-0.235-5.496-0.47-8.061-0.47zM970.047 276.718c7.067 0.538 14.387 0.792 21.793 0.792 28.958-0.106 57.793-3.804 85.85-11.010 28.749-7.228 56.478-18.049 82.557-32.209v310.435c-27.091 15.786-56.273 27.649-86.668 35.238-26.685 6.863-54.111 10.389-81.655 10.502-20.87 0.168-41.679-2.285-61.944-7.303v-312.445c4.786 1.104 9.714 2.123 14.726 2.972 8.222 1.387 16.894 2.405 25.342 3.029zM1128.036 279.123l-11.264 3.793c-10.361 3.482-20.807 6.595-31.31 9.368-30.578 7.858-62.004 11.888-93.566 12.001-7.348 0-14.107-0.198-20.639-0.623l-8.981-0.594v253.517l7.715 0.679c7.151 0.623 14.529 0.934 21.963 0.934 24.86-0.105 49.611-3.309 73.687-9.538 19.824-4.973 39.112-11.903 57.577-20.69l4.819-2.321v-246.526z"></path>
<path fill="#afb1b8" d="M753.946 681.321c-1.619-1.68-3.572-2.999-5.73-3.871s-4.476-1.28-6.801-1.195c-2.478-0.033-4.937 0.429-7.236 1.359-2.108 0.839-4.024 2.1-5.632 3.708-1.589 1.612-2.827 3.539-3.632 5.661-0.883 2.223-1.322 4.598-1.296 6.991v42.229c-0.1 2.975 0.467 5.936 1.662 8.661 0.997 2.164 2.435 4.093 4.224 5.661 1.687 1.421 3.669 2.445 5.8 3.001 2.054 0.577 4.175 0.872 6.307 0.877 2.352 0.023 4.68-0.48 6.814-1.471 2.111-0.924 4.024-2.251 5.632-3.907 1.568-1.641 2.818-3.56 3.689-5.661 0.903-2.129 1.362-4.421 1.351-6.736v-4.726h-11.038v3.764c0.033 1.286-0.187 2.564-0.647 3.764-0.36 0.898-0.907 1.71-1.605 2.377-0.685 0.552-1.468 0.966-2.31 1.217-0.745 0.248-1.524 0.382-2.308 0.396-0.985 0.115-1.983-0.033-2.894-0.432-0.909-0.397-1.699-1.030-2.287-1.832-1.041-1.697-1.55-3.669-1.464-5.661v-39.371c-0.069-2.183 0.395-4.35 1.351-6.311 0.573-0.892 1.384-1.603 2.34-2.054s2.018-0.622 3.066-0.494c0.952-0.033 1.897 0.165 2.755 0.579s1.604 1.032 2.173 1.799c1.235 1.622 1.881 3.62 1.83 5.661v3.651h10.926v-4.302c0.022-2.527-0.436-5.034-1.352-7.387-0.815-2.213-2.070-4.235-3.688-5.944v0z"></path>
<path fill="#afb1b8" d="M819.522 680.839c-3.519-2.972-7.962-4.614-12.557-4.641-2.248 0.009-4.478 0.412-6.589 1.189-2.144 0.768-4.122 1.94-5.828 3.453-1.829 1.644-3.288 3.661-4.281 5.916-1.112 2.579-1.658 5.369-1.605 8.18v40.503c-0.076 2.849 0.472 5.68 1.605 8.293 1 2.177 2.46 4.109 4.281 5.66 1.687 1.567 3.669 2.779 5.828 3.567 2.111 0.777 4.341 1.179 6.589 1.189 2.248-0.004 4.479-0.407 6.588-1.189 2.197-0.799 4.222-2.009 5.969-3.567 1.761-1.579 3.179-3.506 4.167-5.66 1.133-2.613 1.682-5.444 1.605-8.293v-40.503c0.055-2.81-0.493-5.601-1.605-8.18-0.982-2.232-2.399-4.243-4.167-5.916v0zM814.369 735.437c0.092 1.080-0.057 2.166-0.436 3.18-0.381 1.014-0.982 1.929-1.76 2.679-1.458 1.222-3.297 1.892-5.196 1.892s-3.736-0.67-5.195-1.892c-0.779-0.75-1.38-1.665-1.76-2.679s-0.53-2.1-0.436-3.18v-40.503c-0.093-1.080 0.056-2.166 0.436-3.18s0.981-1.93 1.76-2.679c1.458-1.222 3.296-1.892 5.195-1.892s3.738 0.67 5.196 1.892c0.778 0.749 1.379 1.665 1.76 2.679s0.529 2.1 0.436 3.18v40.503z"></path>
<path fill="#afb1b8" d="M905.653 753.524v-76.674h-10.615l-13.938 40.587h-0.197l-14.051-40.587h-10.503v76.674h10.953v-46.644h0.197l10.728 32.974h5.463l10.812-32.974h0.197v46.644h10.953z"></path>
<path fill="#afb1b8" d="M967.883 682.226c-1.686-1.892-3.816-3.332-6.195-4.189-2.563-0.834-5.246-1.235-7.939-1.189h-16.275v76.675h10.925v-29.945h5.632c3.408 0.155 6.8-0.567 9.855-2.095 2.483-1.379 4.555-3.403 5.997-5.859 1.263-2.039 2.115-4.31 2.505-6.679 0.431-2.885 0.628-5.801 0.592-8.717 0.106-3.682-0.254-7.363-1.071-10.953-0.728-2.653-2.114-5.079-4.026-7.048v0zM962.251 705.604c-0.047 1.388-0.393 2.75-1.013 3.991-0.624 1.179-1.613 2.123-2.816 2.688-1.618 0.725-3.384 1.054-5.152 0.963h-4.984v-26.067h5.631c1.696-0.083 3.387 0.247 4.927 0.962 1.13 0.649 2.027 1.64 2.562 2.83 0.598 1.347 0.923 2.8 0.958 4.274 0 1.614 0 3.311 0 5.094s0.112 3.623 0 5.265h-0.114z"></path>
<path fill="#afb1b8" d="M1019.634 676.85h-8.954l-16.894 76.674h10.925l3.21-16.473h14.895l3.21 16.473h10.926l-17.317-76.674zM1009.553 726.607l5.378-27.794h0.197l5.35 27.794h-10.926z"></path>
<path fill="#afb1b8" d="M1090.223 723.041h-0.197l-16.5-46.191h-10.503v76.674h10.925v-46.107h0.226l16.697 46.107h10.277v-76.674h-10.925v46.191z"></path>
<path fill="#afb1b8" d="M1156.986 676.85l-8.793 30.483h-0.223l-8.782-30.483h-11.576l15.004 44.267v32.407h10.93v-32.407l15.004-44.267h-11.565z"></path>
<path fill="#afb1b8" d="M723.478 775.174h5.266v14.775h3.575v-14.775h5.238v-3.029h-14.079v3.029z"></path>
<path fill="#afb1b8" d="M767.741 772.145l-6.899 17.803h3.801l1.465-4.047h7.096l1.52 4.047h3.886l-7.068-17.803h-3.801zM767.177 782.9l2.422-6.595 2.421 6.595h-4.843z"></path>
<path fill="#afb1b8" d="M811.497 783.383h4.112v2.293c-1.201 0.963-2.688 1.49-4.224 1.5-0.718 0.040-1.435-0.093-2.091-0.388s-1.233-0.745-1.682-1.31c-0.944-1.356-1.409-2.99-1.323-4.641 0-3.962 1.717-5.944 5.124-5.944 0.897-0.090 1.796 0.147 2.534 0.666 0.739 0.519 1.268 1.287 1.493 2.164l3.519-0.679c-0.76-3.482-3.266-5.236-7.546-5.236-2.288-0.061-4.515 0.759-6.222 2.293-0.897 0.885-1.592 1.957-2.034 3.14s-0.623 2.449-0.529 3.709c-0.105 2.436 0.71 4.822 2.281 6.68 0.872 0.899 1.928 1.597 3.094 2.047s2.416 0.639 3.663 0.557c2.786 0.078 5.492-0.937 7.546-2.83v-7.019h-7.716v3z"></path>
<path fill="#afb1b8" d="M856.18 772.145h-3.604v17.803h12.474v-3.029h-8.87v-14.775z"></path>
<path fill="#afb1b8" d="M893.969 772.145h-3.604v17.803h3.604v-17.803z"></path>
<path fill="#afb1b8" d="M930.909 784.033l-7.293-11.888h-3.492v17.803h3.35v-11.632l7.152 11.632h3.575v-17.803h-3.293v11.888z"></path>
<path fill="#afb1b8" d="M964.305 782.108h8.87v-3.029h-8.87v-3.906h9.545v-3.029h-13.149v17.803h13.516v-3.029h-9.912v-4.812z"></path>
<path fill="#afb1b8" d="M1045.284 779.165h-7.011v-7.020h-3.575v17.803h3.575v-7.784h7.011v7.784h3.576v-17.803h-3.576v7.020z"></path>
<path fill="#afb1b8" d="M1078.875 782.108h8.898v-3.029h-8.898v-3.906h9.573v-3.029h-13.149v17.803h13.487v-3.029h-9.911v-4.812z"></path>
<path fill="#afb1b8" d="M1124.43 782.109c3.105-0.481 4.675-2.123 4.675-4.953 0.089-0.757-0.022-1.525-0.334-2.222-0.301-0.698-0.79-1.299-1.414-1.741-1.614-0.81-3.406-1.171-5.209-1.047h-7.546v17.803h3.584v-7.444h0.701c0.757-0.047 1.525 0.089 2.226 0.396 0.523 0.323 0.957 0.769 1.269 1.302l3.885 5.661h4.274l-2.17-3.482c-0.957-1.719-2.304-3.183-3.94-4.274v0zM1120.824 779.647h-2.638v-4.472h2.816c1.224-0.099 2.46 0.045 3.629 0.424 0.256 0.23 0.467 0.516 0.601 0.837s0.2 0.668 0.178 1.016c-0.011 0.347-0.111 0.688-0.267 0.994-0.167 0.306-0.401 0.572-0.679 0.776-1.18 0.361-2.404 0.504-3.64 0.425v0z"></path>
<path fill="#afb1b8" d="M1158.79 782.108h8.86v-3.029h-8.86v-3.906h9.572v-3.029h-13.178v17.803h13.512v-3.029h-9.906v-4.812z"></path>
</svg>
