<!-- Generated by IcoMoon.io -->
<svg version="1.1" xmlns="http://www.w3.org/2000/svg" width="1892" height="1024" viewBox="0 0 1892 1024">
<title></title>
<g id="icomoon-ignore">
</g>
<path fill="#afb1b8" d="M779.13 256l78 73.84-144.782-0.085v358.258h378.435v-136.979l77.913 73.759v-368.794h-389.565zM1087.359 542.367l-221.16-209.367h221.16v209.367zM1018.692 635.609h-246.461v-240.947h17.421v224.632h229.040v16.315zM830.429 735.712l-9.104 18.75-9.104-18.75h-7.635l13.289 25v14.565h6.902v-14.565l13.261-25h-7.609zM841.869 775.277l3.207-9.212h15.327l3.233 9.212h7.174l-14.973-39.565h-6.168l-14.946 39.565h7.147zM852.739 744.109l5.733 16.413h-11.468l5.734-16.413zM888.989 759.571c-0.996 1.522-1.495 3.197-1.495 5.027 0 3.334 1.169 6.042 3.506 8.125 2.355 2.066 5.488 3.098 9.402 3.098s7.283-1.060 10.109-3.179l2.228 2.636h7.663l-5.816-6.875c2.283-3.115 3.424-7.11 3.424-11.983h-5.733c0 2.662-0.552 5.081-1.657 7.255l-7.637-9.021 2.69-1.957c1.902-1.377 3.27-2.754 4.104-4.131 0.834-1.395 1.25-2.916 1.25-4.565 0-2.501-0.924-4.592-2.771-6.278-1.83-1.703-4.185-2.554-7.066-2.554-3.189 0-5.724 0.906-7.609 2.717-1.884 1.794-2.826 4.24-2.826 7.337 0 1.268 0.299 2.581 0.897 3.94 0.616 1.359 1.694 3.007 3.233 4.946-2.935 2.101-4.901 3.921-5.897 5.462zM906.842 768.321c-1.938 1.486-4.021 2.228-6.25 2.228-1.975 0-3.551-0.571-4.728-1.712s-1.766-2.627-1.766-4.457c0-2.119 1.087-4.004 3.261-5.652l0.843-0.598 8.641 10.19zM899.75 750.793c-1.865-2.301-2.799-4.212-2.799-5.733 0-1.323 0.381-2.419 1.142-3.288 0.76-0.87 1.784-1.304 3.071-1.304 1.195 0 2.183 0.371 2.962 1.114 0.779 0.725 1.169 1.603 1.169 2.636 0 1.558-0.562 2.835-1.685 3.831l-0.843 0.68-3.016 2.065zM964.152 772.289c2.718-2.374 4.276-5.671 4.675-9.892h-6.849c-0.362 2.826-1.222 4.846-2.581 6.059-1.359 1.214-3.388 1.821-6.087 1.821-2.953 0-5.199-1.123-6.738-3.369-1.523-2.247-2.283-5.507-2.283-9.784v-3.505c0.036-4.221 0.851-7.418 2.445-9.592 1.613-2.192 3.913-3.288 6.902-3.288 2.572 0 4.52 0.633 5.842 1.902 1.341 1.25 2.174 3.297 2.5 6.141h6.849c-0.435-4.33-1.985-7.681-4.647-10.054-2.664-2.373-6.177-3.56-10.544-3.56-3.242 0-6.105 0.77-8.587 2.31-2.463 1.54-4.356 3.732-5.679 6.576s-1.983 6.133-1.983 9.865v3.695c0.053 3.641 0.733 6.839 2.038 9.592s3.152 4.883 5.543 6.386c2.41 1.486 5.19 2.228 8.342 2.228 4.511 0 8.125-1.178 10.842-3.532zM1004.56 766.744c1.341-2.935 2.011-6.341 2.011-10.218v-2.2c-0.018-3.859-0.707-7.237-2.066-10.136-1.358-2.916-3.288-5.144-5.788-6.684-2.482-1.558-5.335-2.337-8.559-2.337s-6.087 0.788-8.587 2.364c-2.482 1.558-4.411 3.813-5.788 6.766-1.359 2.953-2.038 6.359-2.038 10.218v2.228c0.018 3.785 0.706 7.128 2.065 10.026 1.377 2.899 3.316 5.137 5.816 6.713 2.518 1.557 5.38 2.336 8.587 2.336 3.242 0 6.105-0.779 8.586-2.336 2.5-1.576 4.421-3.822 5.761-6.739zM997.196 744.38c1.666 2.337 2.5 5.698 2.5 10.082v2.065c0 4.457-0.825 7.845-2.473 10.163-1.629 2.32-3.967 3.478-7.010 3.478-3.007 0-5.363-1.187-7.066-3.56-1.685-2.373-2.528-5.733-2.528-10.082v-2.282c0.037-4.257 0.888-7.545 2.554-9.865 1.685-2.336 4.013-3.505 6.984-3.505 3.043 0 5.389 1.169 7.038 3.505z"></path>
</svg>
