<!-- Generated by IcoMoon.io -->
<svg version="1.1" xmlns="http://www.w3.org/2000/svg" width="1892" height="1024" viewBox="0 0 1892 1024">
<title></title>
<g id="icomoon-ignore">
</g>
<path fill="#afb1b8" d="M950.817 483.152c-4.932-6.565-7.292-14.324-6.731-22.134v-32.091c0-9.837 2.231-17.313 6.693-22.428 4.461-5.114 12.125-7.661 22.99-7.639 10.21 0 17.457 2.176 21.742 6.529 4.675 5.554 6.949 12.346 6.428 19.196v7.542h-18.263v-7.64c0.065-2.5-0.112-5.001-0.53-7.475-0.263-1.693-1.182-3.258-2.609-4.44-1.875-1.274-4.237-1.892-6.617-1.731-2.502-0.161-4.984 0.491-6.958 1.829-1.591 1.31-2.651 3.026-3.025 4.896-0.524 2.62-0.765 5.276-0.718 7.934v38.947c-0.288 3.758 0.518 7.517 2.344 10.937 0.908 1.156 2.169 2.074 3.645 2.65 1.475 0.577 3.105 0.789 4.712 0.614 2.34 0.166 4.661-0.467 6.466-1.763 1.488-1.276 2.445-2.94 2.723-4.734 0.426-2.583 0.617-5.192 0.568-7.802v-7.9h18.263v7.215c0.513 7.141-1.705 14.229-6.314 20.175-4.197 4.767-11.344 7.15-21.856 7.15s-18.453-2.547-22.952-7.836z"></path>
<path fill="#afb1b8" d="M1026.859 483.479c-4.612-4.995-6.919-12.276-6.919-21.906v-33.756c0-9.532 2.306-16.747 6.919-21.644 4.614-4.897 12.327-7.335 23.141-7.313 10.739 0 18.414 2.438 23.028 7.313 4.612 4.897 6.958 12.112 6.958 21.644v33.756c0 9.532-2.345 16.845-7.033 21.872-4.689 5.028-12.327 7.542-22.952 7.542s-18.49-2.547-23.141-7.509zM1058.509 475.383c1.652-3.129 2.404-6.556 2.193-9.99v-41.331c0.213-3.367-0.528-6.728-2.155-9.794-0.927-1.181-2.219-2.114-3.731-2.691-1.51-0.577-3.179-0.776-4.815-0.573-1.641-0.197-3.312 0.003-4.828 0.58s-2.816 1.506-3.755 2.685c-1.662 3.056-2.416 6.422-2.193 9.794v41.527c-0.229 3.435 0.523 6.865 2.193 9.99 1.065 1.053 2.379 1.897 3.852 2.475 1.475 0.578 3.075 0.877 4.694 0.877s3.219-0.299 4.694-0.877c1.474-0.579 2.787-1.422 3.852-2.475v-0.196z"></path>
<path fill="#afb1b8" d="M1101.952 399.845h19.662l14.781 62.281 15.126-62.281h19.133l1.937 89.897h-14.147l-1.514-62.477-14.592 62.477h-11.342l-15.126-62.707-1.402 62.707h-14.293l1.776-89.897z"></path>
<path fill="#afb1b8" d="M1194.63 399.845h30.631c17.642 0 26.468 8.508 26.468 25.527 0 16.299-9.294 24.438-27.871 24.416h-10.429v39.955h-18.911l0.111-89.897zM1220.797 438.265c1.87 0.205 3.762 0.057 5.565-0.434 1.792-0.49 3.439-1.311 4.831-2.405 2.17-3.036 3.128-6.603 2.727-10.152 0.1-2.743-0.211-5.485-0.913-8.161-0.267-0.894-0.735-1.732-1.391-2.467-0.646-0.735-1.458-1.349-2.382-1.81-2.627-1.086-5.532-1.581-8.437-1.436h-7.335v26.864h7.335z"></path>
<path fill="#afb1b8" d="M1278.987 399.845h20.313l20.836 89.897h-17.631l-4.118-20.728h-18.109l-4.241 20.728h-17.875l20.825-89.897zM1296.351 458.602l-7.079-37.734-7.068 37.734h14.147z"></path>
<path fill="#afb1b8" d="M1336.954 399.845h13.234l25.333 51.281v-51.281h15.694v89.897h-12.589l-25.489-53.534v53.534h-16.217l0.033-89.897z"></path>
<path fill="#afb1b8" d="M1427.968 455.466l-21.059-55.495h17.742l12.856 35.647 12.054-35.647h17.363l-20.803 55.495v34.276h-18.154v-34.276z"></path>
<path fill="#afb1b8" d="M980.009 529.047v4.701h-15.427v36.529h-6.467v-36.529h-15.502v-4.701h37.396z"></path>
<path fill="#afb1b8" d="M1028.371 570.281h-4.992c-0.506 0.027-1.006-0.112-1.399-0.392-0.377-0.239-0.666-0.568-0.831-0.946l-4.462-9.794h-21.402l-4.462 9.794c-0.127 0.41-0.36 0.788-0.681 1.11-0.395 0.273-0.893 0.412-1.398 0.392h-4.992l18.906-41.228h6.58l19.133 41.065zM997.061 554.971h17.849l-7.563-16.778c-0.558-1.269-1.025-2.567-1.399-3.885-0.265 0.784-0.492 1.534-0.718 2.187l-0.681 1.73-7.487 16.746z"></path>
<path fill="#afb1b8" d="M1060.966 566.232c1.183 0.053 2.37 0.053 3.554 0 1.022-0.091 2.034-0.255 3.025-0.49 0.926-0.197 1.835-0.447 2.723-0.751 0.831-0.294 1.664-0.653 2.533-1.012v-9.273h-7.563c-0.187 0.010-0.374-0.014-0.55-0.071s-0.335-0.142-0.471-0.255c-0.124-0.092-0.223-0.208-0.287-0.338-0.066-0.13-0.097-0.27-0.090-0.413v-3.167h14.671v15.802c-1.198 0.739-2.462 1.395-3.782 1.959-1.348 0.574-2.753 1.044-4.196 1.404-1.547 0.393-3.128 0.677-4.727 0.849-1.833 0.176-3.676 0.263-5.521 0.26-3.261 0.024-6.497-0.496-9.529-1.534-2.83-0.983-5.403-2.449-7.562-4.31-2.106-1.88-3.763-4.098-4.878-6.529-1.191-2.734-1.782-5.634-1.739-8.554-0.040-2.938 0.536-5.859 1.701-8.619 1.087-2.443 2.748-4.667 4.878-6.529 2.157-1.855 4.73-3.31 7.562-4.277 3.238-1.052 6.675-1.572 10.134-1.535 1.76-0.001 3.517 0.119 5.256 0.36 1.537 0.216 3.044 0.567 4.5 1.045 1.322 0.429 2.59 0.976 3.781 1.632 1.159 0.644 2.258 1.365 3.289 2.155l-1.814 2.547c-0.142 0.233-0.354 0.429-0.613 0.565-0.259 0.138-0.558 0.214-0.861 0.218-0.419-0.011-0.825-0.125-1.172-0.326-0.568-0.262-1.173-0.588-1.853-0.979-0.804-0.435-1.652-0.807-2.533-1.11-1.128-0.391-2.291-0.697-3.479-0.915-1.584-0.252-3.191-0.372-4.802-0.358-2.494-0.024-4.972 0.364-7.298 1.142-2.104 0.729-4 1.843-5.559 3.265-1.567 1.483-2.764 3.228-3.516 5.127-1.69 4.464-1.69 9.278 0 13.744 0.827 1.939 2.116 3.708 3.781 5.191 1.55 1.415 3.433 2.528 5.521 3.265 2.404 0.713 4.953 0.991 7.487 0.817v0z"></path>
<path fill="#afb1b8" d="M1121.235 565.577h20.647v4.7h-26.958v-41.23h6.467l-0.156 36.53z"></path>
<path fill="#afb1b8" d="M1163.364 570.278h-6.467v-41.23h6.467v41.23z"></path>
<path fill="#afb1b8" d="M1187.406 529.243c0.39 0.189 0.723 0.445 0.991 0.751l27.637 31.080c-0.033-0.489-0.033-0.979 0-1.469 0-0.456 0-0.914 0-1.338v-29.382h5.632v41.396h-3.25c-0.479 0.033-0.968-0.046-1.402-0.229-0.39-0.205-0.735-0.471-1.013-0.784l-27.603-31.047c0 0.49 0 0.947 0 1.405 0 0.456 0 0.882 0 1.273v29.382h-5.409v-41.234h3.361c0.367 0.001 0.723 0.068 1.057 0.196v0z"></path>
<path fill="#afb1b8" d="M1269.27 529.047v4.538h-22.906v13.614h18.566v4.374h-18.566v14.070h22.906v4.538h-29.562v-41.134h29.562z"></path>
<path fill="#afb1b8" d="M591.714 274.426l287.11 70.381v246.628l-287.11-70.349v-246.66zM573.299 253.403v279.664l323.902 79.423v-279.631l-323.902-79.457z"></path>
<path fill="#afb1b8" d="M746.896 742.313l-323.939-79.49v-279.634l323.939 79.458v279.667z"></path>
<path fill="#afb1b8" d="M578.668 271.26l283.366 69.498-120.508 104.068-283.404-69.532 120.546-104.035zM573.299 253.403l-150.342 129.792 323.939 79.455 150.304-129.791-323.901-79.456z"></path>
<path fill="#afb1b8" d="M765.123 726.581l132.077-114.057-132.077-32.414v146.471z"></path>
</svg>
